<!-- GitHub-white.svg -->
<svg xmlns="http://www.w3.org/2000/svg" width="24" height="24" viewBox="0 0 24 24" fill="white">
  <path d="M12 0.2975C5.3705 0.2975 0 5.668 0 12.2975C0 17.5405 3.438 21.9845 8.207 23.5445C8.805 23.6485 9.025 23.2975 9.025 23.0005C9.025 22.7345 9.015 22.1245 9.01 21.3145C5.672 21.9845 4.968 19.7445 4.968 19.7445C4.422 18.3675 3.633 18.0045 3.633 18.0045C2.545 17.2935 3.717 17.3095 3.717 17.3095C4.922 17.3975 5.555 18.5745 5.555 18.5745C6.637 20.4135 8.384 19.9025 9.048 19.6065C9.151 18.8245 9.455 18.2735 9.795 17.9715C7.141 17.6695 4.343 16.6175 4.343 11.8595C4.343 10.5175 4.816 9.4295 5.594 8.5955C5.469 8.2915 5.045 7.0085 5.707 5.2875C5.707 5.2875 6.727 4.9615 9.007 6.6075C9.977 6.3375 11.017 6.2025 12.057 6.1975C13.097 6.2025 14.137 6.3375 15.107 6.6075C17.387 4.9615 18.407 5.2875 18.407 5.2875C19.069 7.0085 18.645 8.2915 18.52 8.5955C19.303 9.4295 19.772 10.5175 19.772 11.8595C19.772 16.6285 16.969 17.6665 14.307 17.9615C14.742 18.3365 15.135 19.0865 15.135 20.2155C15.135 21.8145 15.121 22.9885 15.121 23.0005C15.121 23.2975 15.337 23.6535 15.945 23.5445C20.71 21.9815 24 17.5395 24 12.2975C24 5.668 18.63 0.2975 12 0.2975Z"></path>
</svg>
